<svg width="100%" height="100%" id="svg" viewBox="0 0 1440 390" xmlns="http://www.w3.org/2000/svg" class="transition duration-300 ease-in-out delay-150"><defs><linearGradient id="gradient" x1="0%" y1="50%" x2="100%" y2="50%"><stop offset="5%" stop-color="#F78DA7"></stop><stop offset="95%" stop-color="#8ED1FC"></stop></linearGradient></defs><path d="M 0,400 C 0,400 0,133 0,133 C 86.64285714285714,144.71428571428572 173.28571428571428,156.42857142857142 308,144 C 442.7142857142857,131.57142857142858 625.5,95 755,94 C 884.5,93 960.7142857142858,127.57142857142858 1066,140 C 1171.2857142857142,152.42857142857142 1305.642857142857,142.71428571428572 1440,133 C 1440,133 1440,400 1440,400 Z" stroke="none" stroke-width="0" fill="url(#gradient)" fill-opacity="0.53" class="transition-all duration-300 ease-in-out delay-150 path-0"></path><defs><linearGradient id="gradient" x1="0%" y1="50%" x2="100%" y2="50%"><stop offset="5%" stop-color="#F78DA7"></stop><stop offset="95%" stop-color="#8ED1FC"></stop></linearGradient></defs><path d="M 0,400 C 0,400 0,266 0,266 C 113.35714285714286,270.67857142857144 226.71428571428572,275.35714285714283 337,288 C 447.2857142857143,300.64285714285717 554.5,321.25 681,315 C 807.5,308.75 953.2857142857142,275.64285714285717 1083,263 C 1212.7142857142858,250.35714285714283 1326.357142857143,258.17857142857144 1440,266 C 1440,266 1440,400 1440,400 Z" stroke="none" stroke-width="0" fill="url(#gradient)" fill-opacity="1" class="transition-all duration-300 ease-in-out delay-150 path-1"></path></svg>